<svg width="531" height="247" viewBox="0 0 531 247" fill="none" xmlns="http://www.w3.org/2000/svg">
<g clip-path="url(#clip0_84_854)">
<path d="M111.218 35.246H104.486V105.96H111.218V35.246Z" fill="white"/>
<path d="M111.218 35.246H104.486V105.96H111.218V35.246Z" stroke="black"/>
<path d="M291.982 105.933H298.659V35.246H291.982V66.7643H251.952V35.246H245.22V105.933H251.952V73.4685H291.982V105.933Z" fill="white"/>
<path d="M291.982 105.933H298.659V35.246H291.982V66.7643H251.952V35.246H245.22V105.933H251.952V73.4685H291.982V105.933Z" stroke="black"/>
<path d="M323.974 41.978H346.618V105.933H353.294V41.978H375.938V35.246H323.974V41.978Z" fill="white"/>
<path d="M323.974 41.978H346.618V105.933H353.294V41.978H375.938V35.246H323.974V41.978Z" stroke="black"/>
<path d="M203.436 185.549H236.846V178.817H203.436V155.088H244.691V148.328H196.676V218.959H245.665V212.255H203.436V185.549Z" fill="white"/>
<path d="M203.436 185.549H236.846V178.817H203.436V155.088H244.691V148.328H196.676V218.959H245.665V212.255H203.436V185.549Z" stroke="black"/>
<path d="M302.887 182.35C299.187 181.098 295.376 179.846 291.565 178.706C287.921 177.593 284.805 176.007 282.302 174.004C279.909 172.057 278.741 169.609 278.741 166.466C278.741 162.849 280.076 159.956 282.83 157.619C285.584 155.283 289.534 154.086 294.542 154.086C296.489 154.086 298.353 154.337 300.133 154.81C301.914 155.283 303.388 155.811 304.473 156.423C305.586 157.007 306.643 157.703 307.588 158.454C307.735 158.571 307.874 158.682 308.006 158.787C308.747 159.379 309.244 159.775 309.48 160.012C309.731 160.262 309.897 160.457 310.009 160.624L310.621 161.542L315.405 156.701L314.098 155.227C313.542 154.559 312.651 153.808 311.427 152.946C310.259 152.111 308.896 151.277 307.394 150.498C305.864 149.691 303.944 148.968 301.663 148.356C299.382 147.744 296.99 147.438 294.542 147.438C287.921 147.438 282.441 149.302 278.296 152.974C274.123 156.674 271.981 161.236 271.981 166.521C271.981 171.056 273.4 174.839 276.154 177.76C278.88 180.597 282.218 182.712 286.085 184.047C289.785 185.299 293.596 186.551 297.407 187.691C301.051 188.804 304.167 190.389 306.698 192.392C309.119 194.312 310.287 196.788 310.287 199.903C310.287 203.965 308.896 207.136 306.031 209.584C303.165 212.032 298.937 213.256 293.485 213.256C291.092 213.256 288.783 212.95 286.641 212.366C284.499 211.754 282.747 211.086 281.439 210.335C280.132 209.584 278.908 208.722 277.795 207.748C276.404 206.552 275.903 205.996 275.709 205.745C275.379 205.34 275.234 205.096 275.148 204.95C275.14 204.936 275.132 204.923 275.124 204.911L274.568 203.798L269.672 208.638L271.063 210.335C271.647 211.114 272.565 212.032 273.928 213.089C275.236 214.146 276.766 215.176 278.463 216.149C280.187 217.151 282.413 218.041 285.111 218.792C287.782 219.515 290.619 219.905 293.512 219.905C300.662 219.905 306.392 218.013 310.621 214.285C314.877 210.53 317.019 205.662 317.019 199.876C317.019 195.341 315.6 191.558 312.846 188.637C310.12 185.799 306.754 183.685 302.887 182.35Z" fill="white"/>
<path d="M302.887 182.35C299.187 181.098 295.376 179.846 291.565 178.706C287.921 177.593 284.805 176.007 282.302 174.004C279.909 172.057 278.741 169.609 278.741 166.466C278.741 162.849 280.076 159.956 282.83 157.619C285.584 155.283 289.534 154.086 294.542 154.086C296.489 154.086 298.353 154.337 300.133 154.81C301.914 155.283 303.388 155.811 304.473 156.423C305.586 157.007 306.643 157.703 307.588 158.454C307.735 158.571 307.874 158.682 308.006 158.787C308.747 159.379 309.244 159.775 309.48 160.012C309.731 160.262 309.897 160.457 310.009 160.624L310.621 161.542L315.405 156.701L314.098 155.227C313.542 154.559 312.651 153.808 311.427 152.946C310.259 152.111 308.896 151.277 307.394 150.498C305.864 149.691 303.944 148.968 301.663 148.356C299.382 147.744 296.99 147.438 294.542 147.438C287.921 147.438 282.441 149.302 278.296 152.974C274.123 156.674 271.981 161.236 271.981 166.521C271.981 171.056 273.4 174.839 276.154 177.76C278.88 180.597 282.218 182.712 286.085 184.047C289.785 185.299 293.596 186.551 297.407 187.691C301.051 188.804 304.167 190.389 306.698 192.392C309.119 194.312 310.287 196.788 310.287 199.903C310.287 203.965 308.896 207.136 306.031 209.584C303.165 212.032 298.937 213.256 293.485 213.256C291.092 213.256 288.783 212.95 286.641 212.366C284.499 211.754 282.747 211.086 281.439 210.335C280.132 209.584 278.908 208.722 277.795 207.748C276.404 206.552 275.903 205.996 275.709 205.745C275.379 205.34 275.234 205.096 275.148 204.95C275.14 204.936 275.132 204.923 275.124 204.911L274.568 203.798L269.672 208.638L271.063 210.335C271.647 211.114 272.565 212.032 273.928 213.089C275.236 214.146 276.766 215.176 278.463 216.149C280.187 217.151 282.413 218.041 285.111 218.792C287.782 219.515 290.619 219.905 293.512 219.905C300.662 219.905 306.392 218.013 310.621 214.285C314.877 210.53 317.019 205.662 317.019 199.876C317.019 195.341 315.6 191.558 312.846 188.637C310.12 185.799 306.754 183.685 302.887 182.35Z" stroke="black"/>
<path d="M353.294 148.328H346.618V218.931H353.294V148.328Z" fill="white"/>
<path d="M353.294 148.328H346.618V218.931H353.294V148.328Z" stroke="black"/>
<path d="M210.836 88.2958C213.979 81.4802 213.423 70.9927 213.395 70.5476L213.34 69.713H186.55V76.3895H206.385H206.747C206.691 79.7277 206.329 82.8155 203.909 87.4334C201.545 91.94 198.318 94.3602 195.758 96.0015C193.31 97.5593 191.029 98.227 189.555 98.6442L189.305 98.7277C186.717 99.4788 183.963 99.8682 181.154 99.8682C173.17 99.8682 166.299 97.0308 160.763 91.4392C155.227 85.8477 152.417 78.8375 152.417 70.6589C152.417 62.4802 155.227 55.4978 160.763 49.8785C166.299 44.287 173.142 41.4495 181.154 41.4495C184.075 41.4495 186.94 41.8946 189.638 42.7848C192.365 43.675 194.618 44.6486 196.287 45.7057C197.984 46.7628 199.542 47.9868 200.988 49.4056C202.769 51.1581 203.492 51.9927 203.742 52.3543C204.16 52.9385 204.438 53.3558 204.632 53.6618L205.189 54.5798L210.001 50.4349L208.444 48.1816C207.72 47.1801 206.524 45.9561 204.938 44.4817C203.381 43.063 201.517 41.5886 199.403 40.1142C197.261 38.6398 194.562 37.3602 191.307 36.3587C188.08 35.3294 184.659 34.8287 181.126 34.8287C171.417 34.8287 162.988 38.3338 156.117 45.2884C149.246 52.2152 145.769 60.7555 145.769 70.6589C145.769 80.5622 149.246 89.1025 156.117 96.0293C162.988 102.984 171.417 106.489 181.126 106.489H182.127C183.49 106.461 187.107 106.211 191.53 104.876C194.34 104.013 197.038 102.845 199.597 101.343C204.382 98.3104 208.249 93.8316 210.836 88.2958Z" fill="white"/>
<path d="M210.836 88.2958C213.979 81.4802 213.423 70.9927 213.395 70.5476L213.34 69.713H186.55V76.3895H206.385H206.747C206.691 79.7277 206.329 82.8155 203.909 87.4334C201.545 91.94 198.318 94.3602 195.758 96.0015C193.31 97.5593 191.029 98.227 189.555 98.6442L189.305 98.7277C186.717 99.4788 183.963 99.8682 181.154 99.8682C173.17 99.8682 166.299 97.0308 160.763 91.4392C155.227 85.8477 152.417 78.8375 152.417 70.6589C152.417 62.4802 155.227 55.4978 160.763 49.8785C166.299 44.287 173.142 41.4495 181.154 41.4495C184.075 41.4495 186.94 41.8946 189.638 42.7848C192.365 43.675 194.618 44.6486 196.287 45.7057C197.984 46.7628 199.542 47.9868 200.988 49.4056C202.769 51.1581 203.492 51.9927 203.742 52.3543C204.16 52.9385 204.438 53.3558 204.632 53.6618L205.189 54.5798L210.001 50.4349L208.444 48.1816C207.72 47.1801 206.524 45.9561 204.938 44.4817C203.381 43.063 201.517 41.5886 199.403 40.1142C197.261 38.6398 194.562 37.3602 191.307 36.3587C188.08 35.3294 184.659 34.8287 181.126 34.8287C171.417 34.8287 162.988 38.3338 156.117 45.2884C149.246 52.2152 145.769 60.7555 145.769 70.6589C145.769 80.5622 149.246 89.1025 156.117 96.0293C162.988 102.984 171.417 106.489 181.126 106.489H182.127C183.49 106.461 187.107 106.211 191.53 104.876C194.34 104.013 197.038 102.845 199.597 101.343C204.382 98.3104 208.249 93.8316 210.836 88.2958Z" stroke="black"/>
<path d="M447.821 183.713H420.698V190.473H440.783H441.145C441.089 193.839 440.728 196.982 438.252 201.628C435.832 206.19 432.577 208.638 430.018 210.28C427.605 211.825 425.378 212.472 423.85 212.916C423.81 212.927 423.77 212.939 423.731 212.95L423.452 213.034C420.837 213.785 418.056 214.174 415.218 214.174C407.123 214.174 400.168 211.309 394.577 205.634C388.957 199.959 386.12 192.893 386.12 184.603C386.12 176.313 388.957 169.247 394.577 163.572C400.168 157.897 407.123 155.032 415.218 155.032C418.167 155.032 421.06 155.477 423.814 156.367C426.568 157.285 428.849 158.259 430.546 159.316C432.271 160.373 433.856 161.625 435.303 163.044C436.777 164.463 437.695 165.492 438.113 166.048C438.53 166.632 438.836 167.078 439.003 167.384L439.559 168.302L444.455 164.101L442.87 161.82C442.119 160.818 440.922 159.567 439.309 158.092C437.695 156.618 435.804 155.143 433.69 153.669C431.52 152.167 428.766 150.887 425.511 149.858C422.228 148.829 418.779 148.3 415.218 148.3C405.37 148.3 396.858 151.861 389.903 158.871C382.949 165.881 379.416 174.533 379.416 184.548C379.416 194.562 382.949 203.214 389.903 210.224C396.858 217.262 405.37 220.795 415.218 220.795H416.247C417.61 220.767 421.255 220.545 425.789 219.154C428.627 218.291 431.381 217.095 433.968 215.565C438.78 212.589 442.703 208.054 445.29 202.435C448.489 195.536 447.905 184.937 447.877 184.464L447.821 183.713Z" fill="white"/>
<path d="M447.821 183.713H420.698V190.473H440.783H441.145C441.089 193.839 440.728 196.982 438.252 201.628C435.832 206.19 432.577 208.638 430.018 210.28C427.605 211.825 425.378 212.472 423.85 212.916C423.81 212.927 423.77 212.939 423.731 212.95L423.452 213.034C420.837 213.785 418.056 214.174 415.218 214.174C407.123 214.174 400.168 211.309 394.577 205.634C388.957 199.959 386.12 192.893 386.12 184.603C386.12 176.313 388.957 169.247 394.577 163.572C400.168 157.897 407.123 155.032 415.218 155.032C418.167 155.032 421.06 155.477 423.814 156.367C426.568 157.285 428.849 158.259 430.546 159.316C432.271 160.373 433.856 161.625 435.303 163.044C436.777 164.463 437.695 165.492 438.113 166.048C438.53 166.632 438.836 167.078 439.003 167.384L439.559 168.302L444.455 164.101L442.87 161.82C442.119 160.818 440.922 159.567 439.309 158.092C437.695 156.618 435.804 155.143 433.69 153.669C431.52 152.167 428.766 150.887 425.511 149.858C422.228 148.829 418.779 148.3 415.218 148.3C405.37 148.3 396.858 151.861 389.903 158.871C382.949 165.881 379.416 174.533 379.416 184.548C379.416 194.562 382.949 203.214 389.903 210.224C396.858 217.262 405.37 220.795 415.218 220.795H416.247C417.61 220.767 421.255 220.545 425.789 219.154C428.627 218.291 431.381 217.095 433.968 215.565C438.78 212.589 442.703 208.054 445.29 202.435C448.489 195.536 447.905 184.937 447.877 184.464L447.821 183.713Z" stroke="black"/>
<path d="M523.821 149.302V206.997L479.451 149.302H474.165V219.905H480.925V162.209L525.24 219.905H530.526V149.302H523.821Z" fill="white"/>
<path d="M523.821 149.302V206.997L479.451 149.302H474.165V219.905H480.925V162.209L525.24 219.905H530.526V149.302H523.821Z" stroke="black"/>
<path d="M45.0381 59.9209C46.6237 59.5315 48.5432 58.6413 50.8243 57.306C53.1054 55.9429 55.4143 54.2738 57.7233 52.243C60.0322 50.2123 62.0073 47.347 63.593 43.5915C65.2064 39.836 65.9853 35.6632 65.9853 31.0454C65.9853 22.2826 62.8975 14.9107 56.7496 8.95754C50.6296 2.97657 42.8682 0 33.5212 0H0L4.31186 7.62225H33.5212C41.0044 7.62225 47.041 9.81991 51.631 14.1874C56.2211 18.5549 58.5022 24.202 58.5022 31.0732C58.5022 37.9444 56.2211 43.5637 51.631 47.959C47.041 52.3543 41.0044 54.5242 33.5212 54.5242H30.8785L59.9766 105.96H68.3221L42.6179 60.5886L45.0381 59.9209Z" fill="white"/>
<path d="M45.0381 59.9209C46.6237 59.5315 48.5432 58.6413 50.8243 57.306C53.1054 55.9429 55.4143 54.2738 57.7233 52.243C60.0322 50.2123 62.0073 47.347 63.593 43.5915C65.2064 39.836 65.9853 35.6632 65.9853 31.0454C65.9853 22.2826 62.8975 14.9107 56.7496 8.95754C50.6296 2.97657 42.8682 0 33.5212 0H0L4.31186 7.62225H33.5212C41.0044 7.62225 47.041 9.81991 51.631 14.1874C56.2211 18.5549 58.5022 24.202 58.5022 31.0732C58.5022 37.9444 56.2211 43.5637 51.631 47.959C47.041 52.3543 41.0044 54.5242 33.5212 54.5242H30.8785L59.9766 105.96H68.3221L42.6179 60.5886L45.0381 59.9209Z" stroke="black"/>
<path d="M150.053 163.684C139.454 153.419 126.268 148.272 110.523 148.272H83.8726L88.1845 155.895H90.549H104.542H110.523C124.515 155.895 135.977 160.206 144.906 168.858C153.864 177.51 158.315 188.359 158.315 201.378C158.315 214.425 153.836 225.274 144.906 233.953C142.236 236.54 139.287 238.738 136.171 240.546L139.815 246.972C143.488 244.83 146.937 242.215 150.108 239.1C160.679 228.835 165.965 216.261 165.965 201.378C165.965 186.495 160.652 173.977 150.053 163.684Z" fill="white"/>
<path d="M150.053 163.684C139.454 153.419 126.268 148.272 110.523 148.272H83.8726L88.1845 155.895H90.549H104.542H110.523C124.515 155.895 135.977 160.206 144.906 168.858C153.864 177.51 158.315 188.359 158.315 201.378C158.315 214.425 153.836 225.274 144.906 233.953C142.236 236.54 139.287 238.738 136.171 240.546L139.815 246.972C143.488 244.83 146.937 242.215 150.108 239.1C160.679 228.835 165.965 216.261 165.965 201.378C165.965 186.495 160.652 173.977 150.053 163.684Z" stroke="black"/>
</g>
<defs>
<clipPath id="clip0_84_854">
<rect width="530.526" height="247" fill="white"/>
</clipPath>
</defs>
</svg>
