<svg width="85" height="55" viewBox="0 0 85 55" fill="none" xmlns="http://www.w3.org/2000/svg">
<path d="M20.6293 4.33064L21.3897 4.38606C24.874 4.53847 27.7499 5.61919 29.9345 7.71136C32.2851 9.9698 33.4741 12.8656 33.4741 16.4126C33.4741 19.9457 32.2989 22.8554 29.9345 25.1138C27.7499 27.2198 23.5743 28.2728 19.2604 28.356L21.3897 32.3879L34.2346 55H38.5208L25.3026 31.6259L26.5609 31.2795C27.3766 31.0855 28.3721 30.6283 29.5474 29.9355C30.7227 29.2427 31.9117 28.3698 33.1008 27.3307C34.2899 26.2915 35.2993 24.809 36.115 22.8831C36.9446 20.9572 37.3456 18.7957 37.3456 16.4126C37.3456 11.8957 35.7694 8.09932 32.6031 5.02341C29.423 1.9475 25.4409 0.409546 20.6293 0.409546H0L2.5994 4.33064H3.91292H20.6293Z" fill="white"/>
<path d="M75.5206 8.77823C69.7826 3.20835 62.6481 0.409546 54.1309 0.409546H37.2763L39.6268 4.33064H41.2722H50.7434H53.9926C61.5558 4.33064 67.9022 6.90775 72.7277 11.5909C77.567 16.274 80.0834 22.1626 80.0834 29.2289C80.0834 36.309 77.567 42.1837 72.7277 46.8946C70.7366 48.8343 68.4967 50.3446 66.0494 51.4807L68.0266 54.9861C70.7505 53.656 73.2669 51.8964 75.5345 49.6795C81.2587 44.1096 84.1208 37.2927 84.1208 29.2289C84.1208 21.165 81.2587 14.3481 75.5206 8.77823Z" fill="white"/>
</svg>
